<?xml version="1.0" standalone="no"?>
<!DOCTYPE svg PUBLIC "-//W3C//DTD SVG 20010904//EN"
 "http://www.w3.org/TR/2001/REC-SVG-20010904/DTD/svg10.dtd">
<svg version="1.0" xmlns="http://www.w3.org/2000/svg"
 width="70.000000pt" height="70.000000pt" viewBox="0 0 70.000000 70.000000"
 preserveAspectRatio="xMidYMid meet">
<metadata>
Created by potrace 1.14, written by Peter Selinger 2001-2017
</metadata>
<g transform="translate(0.000000,70.000000) scale(0.100000,-0.100000)"
fill="#000000" stroke="none">
<path d="M1 631 c-1 -45 2 -72 10 -77 8 -5 9 -3 4 6 -10 17 49 -23 88 -58 15
-14 27 -31 27 -38 0 -6 8 -15 18 -19 16 -6 15 -7 -3 -18 -25 -14 -95 -16 -95
-3 0 6 -5 5 -11 -1 -6 -6 -18 -9 -26 -6 -11 5 -13 -6 -11 -58 3 -63 3 -64 31
-62 15 1 25 -2 22 -7 -3 -5 7 -5 24 0 19 5 33 4 40 -3 8 -8 11 -7 11 2 0 11 3
11 15 1 12 -10 12 -17 3 -34 -25 -47 -71 -93 -109 -110 l-40 -18 3 -61 c2 -49
6 -61 21 -63 9 -1 23 4 31 11 7 8 16 11 19 8 3 -3 13 2 22 11 9 9 21 14 26 11
5 -4 9 -1 9 5 0 6 7 13 16 17 22 8 83 70 76 77 -3 3 0 6 7 6 7 0 10 4 6 9 -3
5 -1 12 4 16 5 3 16 19 25 35 9 19 10 28 3 23 -7 -4 -7 0 1 10 8 9 11 21 7 26
-3 6 0 8 8 5 11 -4 13 1 10 19 -3 14 0 27 5 31 11 7 10 -43 -1 -61 -5 -8 -4
-13 2 -13 6 0 11 -5 11 -11 0 -5 -4 -8 -8 -5 -9 5 -10 -22 -1 -39 3 -6 4 -52
4 -102 l-1 -93 58 0 c39 0 58 4 58 13 1 6 2 36 3 64 1 29 -2 53 -7 53 -6 0 -5
5 2 12 7 7 8 17 2 28 -5 9 -5 22 0 30 5 9 4 20 -3 29 -9 12 -9 13 1 7 6 -4 12
-2 12 3 0 6 -5 11 -10 11 -7 0 -7 7 0 20 12 23 32 18 23 -5 -3 -8 0 -15 7 -15
6 0 9 -4 6 -9 -8 -12 39 -102 49 -93 5 4 5 -1 2 -10 -4 -10 -3 -18 1 -18 5 0
24 -15 44 -33 19 -17 48 -39 64 -47 16 -8 35 -19 43 -24 32 -24 38 -15 40 61
1 51 -1 73 -9 68 -5 -3 -13 1 -16 9 -3 9 -10 13 -15 10 -5 -3 -12 2 -15 10 -3
9 -12 16 -19 16 -7 0 -19 14 -27 30 -7 17 -16 30 -20 30 -5 0 -8 9 -8 20 0 21
10 23 93 22 l37 -1 0 64 c0 51 -3 63 -14 59 -8 -3 -17 -1 -20 5 -4 7 -15 7
-31 1 -16 -6 -27 -6 -31 1 -4 8 -9 7 -15 -2 -7 -11 -9 -11 -9 -1 0 7 -5 10
-11 6 -6 -3 -3 6 7 22 28 44 54 78 54 69 0 -5 8 2 19 13 10 12 21 19 25 15 3
-3 6 -1 6 6 0 7 5 9 11 6 7 -5 9 18 8 68 -2 75 -2 75 -25 65 -13 -6 -24 -15
-24 -20 0 -5 -5 -6 -10 -3 -6 3 -10 1 -10 -4 0 -6 -3 -10 -7 -9 -26 5 -148
-105 -137 -124 3 -4 0 -8 -6 -8 -6 0 -8 -4 -5 -10 3 -5 1 -10 -4 -10 -6 0 -11
-8 -11 -17 -1 -25 -29 -74 -30 -51 0 9 -6 19 -13 21 -9 4 -9 6 0 6 9 1 10 8 4
24 -5 14 -5 30 0 40 7 11 6 17 -1 17 -6 0 -8 5 -4 12 4 6 8 40 8 74 1 72 -1
74 -76 74 -48 0 -50 -1 -46 -25 3 -14 1 -28 -4 -31 -6 -4 -6 -9 1 -13 7 -5 8
-17 2 -38 -5 -17 -6 -34 -3 -38 3 -3 6 -28 7 -55 1 -29 -2 -45 -7 -38 -5 9 -8
8 -8 -4 0 -10 5 -18 12 -18 6 0 8 -3 5 -7 -4 -3 -1 -13 6 -21 8 -10 8 -13 1
-9 -7 4 -14 0 -18 -8 -3 -8 -1 -17 4 -20 13 -8 13 -25 -1 -25 -5 0 -8 4 -4 9
3 5 1 12 -3 15 -5 3 -8 17 -7 31 2 14 0 25 -4 25 -4 0 -7 10 -8 22 -1 11 -7
24 -13 28 -7 4 -11 10 -11 14 3 24 -4 38 -46 83 -54 56 -99 89 -128 95 -11 1
-22 6 -25 9 -3 4 -14 9 -26 13 -20 6 -21 2 -23 -63z"/>
<path d="M208 81 c-19 -16 -21 -23 -13 -47 8 -24 17 -30 45 -32 23 -2 30 0 22
6 -11 7 -10 10 3 16 9 3 21 3 27 0 6 -4 5 3 -1 15 -7 11 -9 21 -6 21 11 0 -19
26 -37 33 -10 3 -27 -2 -40 -12z"/>
</g>
</svg>
